<?xml version="1.0" encoding="utf-8"?>
<!-- Generator: Adobe Illustrator 25.1.0, SVG Export Plug-In . SVG Version: 6.00 Build 0)  -->
<svg version="1.1" xmlns="http://www.w3.org/2000/svg" xmlns:xlink="http://www.w3.org/1999/xlink" x="0px" y="0px"
	 viewBox="0 0 1172.25 170.99" style="enable-background:new 0 0 1172.25 170.99;" xml:space="preserve">
<style type="text/css">
	.st0{clip-path:url(#SVGID_2_);fill:#FFFFFF;}
	.st1{clip-path:url(#SVGID_2_);fill:none;stroke:#000000;stroke-width:5;stroke-miterlimit:10;}
	.st2{clip-path:url(#SVGID_2_);}
	.st3{clip-path:url(#SVGID_4_);fill:url(#SVGID_5_);}
	.st4{clip-path:url(#SVGID_2_);fill:none;stroke:#000000;stroke-width:2;stroke-miterlimit:10;}
	.st5{clip-path:url(#SVGID_7_);}
	.st6{clip-path:url(#SVGID_7_);fill:#FFFFFF;}
	.st7{clip-path:url(#SVGID_9_);}
	.st8{clip-path:url(#SVGID_11_);}
	.st9{clip-path:url(#SVGID_11_);fill:#ED2424;}
	.st10{clip-path:url(#SVGID_13_);}
	.st11{clip-path:url(#SVGID_15_);}
	.st12{clip-path:url(#SVGID_15_);fill:#ED2424;}
</style>
<g id="Layer_3">
	<g>
		<g>
			<defs>
				<rect id="SVGID_12_" x="3.12" y="5.33" width="1166" height="160.33"/>
			</defs>
			<clipPath id="SVGID_2_">
				<use xlink:href="#SVGID_12_"  style="overflow:visible;"/>
			</clipPath>
			<g class="st2">
				<defs>
					<rect id="SVGID_14_" x="3.12" y="5.33" width="1166" height="160.33"/>
				</defs>
				<clipPath id="SVGID_4_">
					<use xlink:href="#SVGID_14_"  style="overflow:visible;"/>
				</clipPath>
				<path style="clip-path:url(#SVGID_4_);" d="M17.51,84.43l6.17-8.47c2.33,2.52,5.17,4.6,8.53,6.24
					c3.36,1.64,7.04,2.46,11.06,2.46c4.14,0,7.23-0.84,9.27-2.53c2.04-1.68,3.06-3.71,3.06-6.08c0-1.4-0.41-2.61-1.22-3.64
					c-0.82-1.03-1.92-1.87-3.31-2.53c-1.39-0.65-2.99-1.24-4.81-1.75c-1.81-0.52-3.72-1.02-5.71-1.52c-2-0.5-3.98-1.05-5.96-1.64
					c-1.98-0.59-3.88-1.34-5.69-2.25c-1.81-0.91-3.42-1.98-4.81-3.21c-1.39-1.23-2.49-2.8-3.31-4.71c-0.82-1.91-1.22-4.08-1.22-6.51
					c0-5.21,2.09-9.55,6.26-13c4.17-3.45,9.61-5.18,16.32-5.18c9.49,0,17.2,2.89,23.13,8.67l-6.12,8.09c-2.39-2.4-5.15-4.2-8.28-5.4
					c-3.13-1.2-6.37-1.8-9.73-1.8c-3.14,0-5.67,0.72-7.57,2.16c-1.9,1.44-2.86,3.3-2.86,5.58c0,1.24,0.41,2.33,1.22,3.26
					c0.82,0.92,1.92,1.68,3.31,2.28c1.39,0.59,2.99,1.15,4.81,1.66c1.81,0.52,3.71,1.03,5.69,1.55c1.98,0.52,3.97,1.08,5.96,1.68
					c2,0.61,3.9,1.4,5.71,2.37c1.81,0.97,3.42,2.09,4.81,3.37c1.39,1.28,2.49,2.89,3.31,4.85c0.82,1.96,1.22,4.17,1.22,6.62
					c0,2.08-0.29,4.06-0.88,5.93c-0.59,1.87-1.52,3.62-2.79,5.25c-1.27,1.63-2.83,3.03-4.67,4.21c-1.84,1.18-4.1,2.1-6.78,2.78
					c-2.68,0.68-5.63,1.02-8.87,1.02C32.31,94.23,23.89,90.96,17.51,84.43"/>
				<path style="clip-path:url(#SVGID_4_);" d="M77.21,62.17c0-4.69,0.84-9.04,2.52-13.06c1.68-4.02,3.97-7.41,6.87-10.18
					c2.9-2.77,6.35-4.93,10.34-6.48c3.99-1.56,8.25-2.34,12.79-2.34c5.8,0,10.76,1.27,14.87,3.81c4.11,2.54,7.42,5.87,9.93,9.99
					l-9.21,4.83c-1.54-2.67-3.72-4.85-6.53-6.53c-2.81-1.68-5.83-2.53-9.07-2.53c-6.14,0-11.23,2.11-15.28,6.33
					c-4.05,4.22-6.08,9.61-6.08,16.16c0,6.47,2.02,11.83,6.08,16.1c4.05,4.27,9.14,6.4,15.28,6.4c3.2,0,6.22-0.85,9.05-2.55
					c2.83-1.7,5.01-3.87,6.55-6.51l9.3,4.64c-5.96,9.32-14.25,13.98-24.9,13.98c-4.53,0-8.8-0.79-12.79-2.36
					c-3.99-1.57-7.44-3.74-10.34-6.51c-2.9-2.77-5.19-6.16-6.87-10.18C78.05,71.16,77.21,66.82,77.21,62.17"/>
				<path style="clip-path:url(#SVGID_4_);" d="M140.05,93.09l24.35-61.94h13.56l24.31,61.94h-12.33l-4.53-11.97h-28.43l-4.58,11.97
					H140.05z M160,71.55h22.31l-11.16-29.52L160,71.55z"/>
				<path style="clip-path:url(#SVGID_4_);" d="M212.18,93.09V31.15h27.21c6.11,0,11.03,1.79,14.76,5.37
					c3.73,3.58,5.6,8.26,5.6,14.03c0,2.66-0.42,5.09-1.25,7.28c-0.83,2.19-1.95,4.02-3.36,5.49c-1.41,1.47-2.97,2.66-4.69,3.58
					c-1.72,0.92-3.55,1.53-5.49,1.84l15.24,24.35H247.6l-13.65-23.13h-10.88v23.13H212.18z M223.07,60.4h14.96
					c3.08,0,5.62-0.91,7.6-2.72c1.98-1.81,2.97-4.22,2.97-7.21c0-2.93-0.98-5.29-2.95-7.07c-1.97-1.78-4.5-2.68-7.62-2.68h-14.96
					V60.4z"/>
				<rect x="273.84" y="31.15" style="clip-path:url(#SVGID_4_);" width="10.88" height="61.94"/>
				<polygon style="clip-path:url(#SVGID_4_);" points="301.12,93.09 301.12,31.15 312.28,31.15 343.98,74.05 343.98,31.15 
					354.86,31.15 354.86,93.09 344.34,93.09 312.01,48.79 312.01,93.09 				"/>
				<path style="clip-path:url(#SVGID_4_);" d="M368.54,62.17c0-4.69,0.84-9.04,2.52-13.06c1.68-4.02,3.97-7.41,6.87-10.18
					c2.9-2.77,6.35-4.93,10.34-6.48c3.99-1.56,8.25-2.34,12.79-2.34c5.8,0,10.76,1.27,14.87,3.81c4.11,2.54,7.42,5.87,9.93,9.99
					l-9.21,4.83c-1.54-2.67-3.72-4.85-6.53-6.53c-2.81-1.68-5.83-2.53-9.07-2.53c-6.14,0-11.23,2.11-15.28,6.33
					c-4.05,4.22-6.08,9.61-6.08,16.16c0,6.47,2.02,11.83,6.08,16.1c4.05,4.27,9.14,6.4,15.28,6.4c3.2,0,6.22-0.85,9.05-2.55
					c2.83-1.7,5.01-3.87,6.55-6.51l9.3,4.64c-5.96,9.32-14.25,13.98-24.9,13.98c-4.54,0-8.8-0.79-12.79-2.36
					c-3.99-1.57-7.44-3.74-10.34-6.51c-2.9-2.77-5.19-6.16-6.87-10.18C369.38,71.16,368.54,66.82,368.54,62.17"/>
				<rect x="437.77" y="31.15" style="clip-path:url(#SVGID_4_);" width="10.88" height="61.94"/>
				<polygon style="clip-path:url(#SVGID_4_);" points="546.63,93.09 546.63,31.15 557.51,31.15 557.51,56.41 589.76,56.41 
					589.76,31.15 600.64,31.15 600.64,93.09 589.76,93.09 589.76,65.98 557.51,65.98 557.51,93.09 				"/>
				<path style="clip-path:url(#SVGID_4_);" d="M618.33,78.68c-2.68-4.88-4.01-10.38-4.01-16.51c0-6.13,1.34-11.63,4.01-16.51
					c2.67-4.87,6.42-8.69,11.25-11.43c4.82-2.75,10.29-4.12,16.39-4.12c4.56,0,8.81,0.81,12.74,2.42c3.93,1.62,7.29,3.84,10.07,6.66
					c2.78,2.82,4.96,6.21,6.53,10.17c1.57,3.96,2.36,8.23,2.36,12.81c0,4.58-0.79,8.85-2.36,12.81c-1.57,3.96-3.75,7.35-6.53,10.17
					c-2.78,2.82-6.14,5.04-10.07,6.66c-3.93,1.62-8.18,2.42-12.74,2.42c-6.11,0-11.57-1.37-16.39-4.12
					C624.76,87.36,621.01,83.55,618.33,78.68 M625.47,62.17c0,6.5,1.87,11.87,5.62,16.12c3.75,4.25,8.71,6.37,14.87,6.37
					c6.14,0,11.09-2.12,14.87-6.37c3.78-4.25,5.67-9.62,5.67-16.12c0-6.53-1.89-11.91-5.67-16.14c-3.78-4.23-8.74-6.35-14.87-6.35
					c-6.17,0-11.13,2.11-14.87,6.33C627.35,50.22,625.47,55.61,625.47,62.17"/>
				<polygon style="clip-path:url(#SVGID_4_);" points="690.53,93.09 690.53,31.15 701.41,31.15 701.41,83.53 728.71,83.53 
					728.71,93.09 				"/>
				<polygon style="clip-path:url(#SVGID_4_);" points="740.76,93.09 740.76,31.15 751.64,31.15 751.64,83.53 778.94,83.53 
					778.94,93.09 				"/>
				<polygon style="clip-path:url(#SVGID_4_);" points="791.72,93.09 791.72,31.15 834.16,31.15 834.16,40.72 802.6,40.72 
					802.6,56.68 833.53,56.68 833.53,66.25 802.6,66.25 802.6,83.53 834.16,83.53 834.16,93.09 				"/>
				<polygon style="clip-path:url(#SVGID_4_);" points="848.52,93.09 848.52,31.15 859.68,31.15 891.37,74.05 891.37,31.15 
					902.26,31.15 902.26,93.09 891.74,93.09 859.4,48.79 859.4,93.09 				"/>
				<path style="clip-path:url(#SVGID_4_);" d="M918.61,93.09V31.15h30.5c5.54,0,9.86,1.49,12.98,4.47
					c3.12,2.98,4.67,6.75,4.67,11.31c0,3.72-1.04,6.85-3.12,9.41c-2.08,2.56-4.64,4.15-7.67,4.78c3.36,0.51,6.19,2.23,8.5,5.15
					c2.31,2.92,3.47,6.25,3.47,10c0,4.99-1.58,9.04-4.74,12.15c-3.16,3.11-7.58,4.67-13.26,4.67H918.61z M929.49,56.68h17.46
					c2.69,0,4.81-0.73,6.35-2.2c1.54-1.47,2.31-3.39,2.31-5.78c0-2.33-0.77-4.24-2.31-5.74c-1.54-1.5-3.66-2.25-6.35-2.25h-17.46
					V56.68z M929.49,83.53h17.91c2.93,0,5.23-0.76,6.89-2.29c1.66-1.53,2.49-3.64,2.49-6.33c0-2.45-0.83-4.5-2.49-6.17
					c-1.66-1.66-3.96-2.49-6.89-2.49h-17.91V83.53z"/>
				<polygon style="clip-path:url(#SVGID_4_);" points="982.13,93.09 982.13,31.15 1024.57,31.15 1024.57,40.72 993.01,40.72 
					993.01,56.68 1023.94,56.68 1023.94,66.25 993.01,66.25 993.01,83.53 1024.57,83.53 1024.57,93.09 				"/>
				<path style="clip-path:url(#SVGID_4_);" d="M1036.26,62.17c0-4.69,0.84-9.04,2.52-13.06c1.68-4.02,3.97-7.41,6.87-10.18
					c2.9-2.77,6.35-4.93,10.34-6.48c3.99-1.56,8.25-2.34,12.79-2.34c5.8,0,10.76,1.27,14.87,3.81c4.11,2.54,7.42,5.87,9.93,9.99
					l-9.2,4.83c-1.54-2.67-3.72-4.85-6.53-6.53c-2.81-1.68-5.83-2.53-9.07-2.53c-6.14,0-11.23,2.11-15.28,6.33
					c-4.05,4.22-6.08,9.61-6.08,16.16c0,6.47,2.02,11.83,6.08,16.1c4.05,4.27,9.14,6.4,15.28,6.4c3.2,0,6.22-0.85,9.05-2.55
					c2.83-1.7,5.01-3.87,6.55-6.51l9.3,4.64c-5.96,9.32-14.25,13.98-24.9,13.98c-4.53,0-8.8-0.79-12.79-2.36
					c-3.99-1.57-7.44-3.74-10.34-6.51c-2.9-2.77-5.19-6.16-6.87-10.18C1037.09,71.16,1036.26,66.82,1036.26,62.17"/>
				<polygon style="clip-path:url(#SVGID_4_);" points="1105.48,93.09 1105.48,31.15 1116.37,31.15 1116.37,60.58 1140.63,31.15 
					1154.1,31.15 1128.93,60.31 1156.05,93.09 1142.58,93.09 1121.86,66.88 1116.37,73.32 1116.37,93.09 				"/>
				<rect x="492.78" y="18.69" style="clip-path:url(#SVGID_4_);fill:#ED2424;" width="10.12" height="89.47"/>
				<rect x="860.8" y="130.44" style="clip-path:url(#SVGID_4_);" width="281.38" height="4.45"/>
				<path style="clip-path:url(#SVGID_4_);" d="M332.89,153.1l12.91-32.84h7.19l12.89,32.84h-6.54l-2.4-6.35h-15.07l-2.43,6.35
					H332.89z M343.47,141.68h11.83l-5.91-15.65L343.47,141.68z"/>
				<polygon style="clip-path:url(#SVGID_4_);" points="369.75,125.34 369.75,120.26 395.4,120.26 395.4,125.34 385.47,125.34 
					385.47,153.1 379.71,153.1 379.71,125.34 				"/>
				<polygon style="clip-path:url(#SVGID_4_);" points="400.6,125.34 400.6,120.26 426.25,120.26 426.25,125.34 416.33,125.34 
					416.33,153.1 410.56,153.1 410.56,125.34 				"/>
				<path style="clip-path:url(#SVGID_4_);" d="M434.28,145.46c-1.42-2.58-2.13-5.5-2.13-8.75s0.71-6.17,2.13-8.75
					c1.42-2.58,3.41-4.6,5.96-6.06c2.56-1.46,5.45-2.18,8.69-2.18c2.42,0,4.67,0.43,6.75,1.28c2.08,0.86,3.86,2.03,5.34,3.53
					s2.63,3.29,3.46,5.39c0.83,2.1,1.25,4.36,1.25,6.79c0,2.43-0.42,4.69-1.25,6.79c-0.83,2.1-1.99,3.89-3.46,5.39
					c-1.47,1.5-3.25,2.67-5.34,3.53c-2.08,0.86-4.33,1.28-6.75,1.28c-3.24,0-6.13-0.73-8.69-2.18
					C437.69,150.06,435.7,148.04,434.28,145.46 M438.07,136.71c0,3.44,0.99,6.29,2.98,8.54c1.99,2.25,4.62,3.38,7.88,3.38
					c3.25,0,5.88-1.13,7.88-3.38c2-2.25,3.01-5.1,3.01-8.54c0-3.46-1-6.31-3.01-8.56c-2-2.24-4.63-3.37-7.88-3.37
					c-3.27,0-5.9,1.12-7.88,3.36C439.06,130.38,438.07,133.23,438.07,136.71"/>
				<path style="clip-path:url(#SVGID_4_);" d="M473.68,153.1v-32.84h14.42c3.24,0,5.85,0.95,7.82,2.85
					c1.98,1.9,2.97,4.38,2.97,7.44c0,1.41-0.22,2.7-0.66,3.86c-0.44,1.16-1.03,2.13-1.78,2.91c-0.75,0.78-1.57,1.41-2.49,1.9
					c-0.91,0.49-1.88,0.81-2.91,0.97l8.08,12.91h-6.68l-7.24-12.26h-5.77v12.26H473.68z M479.45,135.77h7.93
					c1.63,0,2.98-0.48,4.03-1.44c1.05-0.96,1.57-2.24,1.57-3.82c0-1.55-0.52-2.8-1.56-3.75c-1.04-0.95-2.39-1.42-4.04-1.42h-7.93
					V135.77z"/>
				<polygon style="clip-path:url(#SVGID_4_);" points="507.1,153.1 507.1,120.26 513.02,120.26 529.82,143.01 529.82,120.26 
					535.59,120.26 535.59,153.1 530.01,153.1 512.87,129.62 512.87,153.1 				"/>
				<polygon style="clip-path:url(#SVGID_4_);" points="545,153.1 545,120.26 567.5,120.26 567.5,125.34 550.77,125.34 
					550.77,133.8 567.16,133.8 567.16,138.87 550.77,138.87 550.77,148.03 567.5,148.03 567.5,153.1 				"/>
				<polygon style="clip-path:url(#SVGID_4_);" points="572.46,120.26 579.07,120.26 588.07,134.3 597.1,120.26 603.71,120.26 
					590.99,139.47 590.99,153.1 585.23,153.1 585.23,139.47 				"/>
				<path style="clip-path:url(#SVGID_4_);" d="M607.54,148.51l3.27-4.49c1.23,1.34,2.74,2.44,4.52,3.31
					c1.78,0.87,3.73,1.3,5.87,1.3c2.2,0,3.83-0.45,4.92-1.34c1.08-0.89,1.62-1.97,1.62-3.22c0-0.74-0.22-1.38-0.65-1.93
					c-0.43-0.55-1.02-0.99-1.75-1.34c-0.74-0.35-1.59-0.66-2.55-0.93c-0.96-0.27-1.97-0.54-3.03-0.81
					c-1.06-0.27-2.11-0.56-3.16-0.87c-1.05-0.31-2.05-0.71-3.02-1.2c-0.96-0.48-1.81-1.05-2.55-1.7c-0.74-0.65-1.32-1.48-1.75-2.5
					c-0.43-1.01-0.65-2.16-0.65-3.45c0-2.76,1.11-5.06,3.32-6.89c2.21-1.83,5.1-2.74,8.65-2.74c5.03,0,9.12,1.53,12.26,4.6
					l-3.25,4.29c-1.27-1.27-2.73-2.22-4.39-2.86c-1.66-0.64-3.38-0.95-5.16-0.95c-1.67,0-3,0.38-4.01,1.15
					c-1.01,0.76-1.51,1.75-1.51,2.96c0,0.66,0.22,1.24,0.65,1.73c0.43,0.49,1.02,0.89,1.75,1.21c0.74,0.31,1.59,0.61,2.55,0.88
					c0.96,0.27,1.97,0.55,3.02,0.82c1.05,0.27,2.1,0.57,3.16,0.89c1.06,0.32,2.07,0.74,3.03,1.26c0.96,0.51,1.81,1.11,2.55,1.79
					c0.74,0.68,1.32,1.53,1.75,2.57c0.43,1.04,0.65,2.21,0.65,3.51c0,1.1-0.16,2.15-0.47,3.14c-0.31,0.99-0.81,1.92-1.48,2.78
					c-0.67,0.86-1.5,1.61-2.48,2.23c-0.98,0.62-2.17,1.11-3.59,1.47c-1.42,0.36-2.98,0.54-4.7,0.54
					C615.39,153.7,610.92,151.97,607.54,148.51"/>
				<path style="clip-path:url(#SVGID_4_);" d="M653.12,153.1l12.91-32.84h7.19l12.88,32.84h-6.54l-2.4-6.35h-15.07l-2.43,6.35
					H653.12z M663.69,141.68h11.83l-5.91-15.65L663.69,141.68z"/>
				<polygon style="clip-path:url(#SVGID_4_);" points="689.98,125.34 689.98,120.26 715.63,120.26 715.63,125.34 705.7,125.34 
					705.7,153.1 699.93,153.1 699.93,125.34 				"/>
				<polygon style="clip-path:url(#SVGID_4_);" points="737.71,153.1 737.71,120.26 743.48,120.26 743.48,148.03 757.95,148.03 
					757.95,153.1 				"/>
				<path style="clip-path:url(#SVGID_4_);" d="M762.07,153.1l12.91-32.84h7.19l12.88,32.84h-6.54l-2.4-6.35h-15.07l-2.43,6.35
					H762.07z M772.65,141.68h11.83l-5.91-15.65L772.65,141.68z"/>
				<polygon style="clip-path:url(#SVGID_4_);" points="797.9,120.26 804.35,120.26 810.71,145.53 817.49,120.26 822.09,120.26 
					828.89,145.53 835.28,120.26 841.73,120.26 832.33,153.1 826.17,153.1 819.87,128.95 813.49,153.1 807.28,153.1 				"/>
				<rect x="34.48" y="130.44" style="clip-path:url(#SVGID_4_);" width="280.57" height="4.45"/>
			</g>
		</g>
	</g>
</g>
<g id="Layer_1">
</g>
<g id="Layer_2">
</g>
</svg>
