<?xml version="1.0" encoding="utf-8"?>
<!-- Generator: Adobe Illustrator 25.2.1, SVG Export Plug-In . SVG Version: 6.00 Build 0)  -->
<svg version="1.1" xmlns="http://www.w3.org/2000/svg" xmlns:xlink="http://www.w3.org/1999/xlink" x="0px" y="0px"
	 viewBox="0 0 1435.31 269.99" style="enable-background:new 0 0 1435.31 269.99;" xml:space="preserve">
<style type="text/css">
	.st0{fill:#FFFFFF;}
	.st1{clip-path:url(#SVGID_2_);fill:url(#SVGID_3_);}
	.st2{clip-path:url(#SVGID_5_);}
	.st3{clip-path:url(#SVGID_7_);}
	.st4{clip-path:url(#SVGID_7_);fill:#ED2424;}
</style>
<g id="Layer_3">
	<g>
		<g>
			
				<rect x="46.53" y="50.84" transform="matrix(0.7157 -0.6984 0.6984 0.7157 -58.1948 132.1743)" class="st0" width="173.45" height="173.46"/>
			<path d="M131.72,262.77L8.05,136.03L134.79,12.37L258.46,139.1L131.72,262.77z M13.17,136.1l118.61,121.56l121.56-118.61
				L134.72,17.48L13.17,136.1z"/>
		</g>
		<g>
			<defs>
				
					<rect id="SVGID_1_" x="57.26" y="61.58" transform="matrix(0.7157 -0.6984 0.6984 0.7157 -58.1949 132.1747)" width="151.98" height="151.99"/>
			</defs>
			<clipPath id="SVGID_2_">
				<use xlink:href="#SVGID_1_"  style="overflow:visible;"/>
			</clipPath>
			
				<linearGradient id="SVGID_3_" gradientUnits="userSpaceOnUse" x1="767.6177" y1="138.7061" x2="768.177" y2="138.7061" gradientTransform="matrix(384.2817 0 0 -384.2817 -294955.625 53439.8047)">
				<stop  offset="0" style="stop-color:#8C0507"/>
				<stop  offset="0.252" style="stop-color:#8C0507"/>
				<stop  offset="0.4326" style="stop-color:#CF2026"/>
				<stop  offset="0.437" style="stop-color:#CB1F26"/>
				<stop  offset="0.4814" style="stop-color:#B01A1F"/>
				<stop  offset="0.5257" style="stop-color:#9A1518"/>
				<stop  offset="0.5695" style="stop-color:#8B1012"/>
				<stop  offset="0.6125" style="stop-color:#820C0E"/>
				<stop  offset="0.6538" style="stop-color:#7F0B0D"/>
				<stop  offset="0.7155" style="stop-color:#820C0E"/>
				<stop  offset="0.7835" style="stop-color:#8C1013"/>
				<stop  offset="0.8545" style="stop-color:#9C1519"/>
				<stop  offset="0.9272" style="stop-color:#B21B20"/>
				<stop  offset="1" style="stop-color:#CF2027"/>
			</linearGradient>
			<rect x="25.79" y="30.11" class="st1" width="214.92" height="214.92"/>
		</g>
		<g>
			<path d="M176.04,184.74v-61.56h-12.36v-1.19h-3.29v1.19v0.12v32.5h-27.44v-15.91c0,0-1.56,0.03-3.7,0.43
				c1.59-2.8,2.38-6.03,2.38-9.68c0-3.7-0.89-6.84-2.68-9.41c-1.79-2.57-4.01-4.47-6.68-5.69c-2.67-1.22-5.55-2.31-8.66-3.25
				c-3.1-0.94-5.99-1.68-8.66-2.21c-2.67-0.53-4.89-1.3-6.68-2.31c-1.79-1-2.68-2.26-2.68-3.76c0-1.88,0.78-3.39,2.35-4.52
				c1.57-1.13,3.73-1.69,6.49-1.69c7.21,0,13.23,2.17,18.18,6.75l7.41-9.94c-6.34-5.83-14.4-8.66-24.37-8.66
				c-7.21,0-12.98,1.83-17.31,5.5c-4.33,3.67-6.49,8.2-6.49,13.6c0,3.7,0.89,6.84,2.68,9.41c1.79,2.57,4.01,4.45,6.68,5.65
				c2.67,1.19,5.57,2.24,8.7,3.15c3.14,0.91,6.04,1.62,8.7,2.12c2.67,0.5,4.89,1.3,6.68,2.4c1.79,1.1,2.68,2.49,2.68,4.19
				c0,1.94-0.94,3.59-2.82,4.94c-1.88,1.35-4.58,2.02-8.09,2.02c-7.84,0-14.49-2.85-19.95-8.56l-7.34,10.44
				c6.65,6.65,15.55,9.97,26.72,9.97c4.12,0,7.75-0.47,10.89-1.42v35.48v2.04v0.77h15.38h0.18h1.1v-2.89h-1.1v-22.97h1.18h26.26
				v23.05v2.04v0.77h10.4h5.25h1.1v-2.89H176.04z"/>
			<path class="st0" d="M163.69,121.98v24.65h-29.64v-19.41c0-0.02,0-0.04,0-0.05c0-0.01,0-0.03,0-0.04c0-1.86-0.23-3.58-0.69-5.15
				c-0.45-1.54-1.11-2.95-1.99-4.22c-1.79-2.57-4.01-4.47-6.68-5.69c-2.67-1.22-5.55-2.31-8.66-3.25c-3.1-0.94-5.99-1.68-8.65-2.21
				c-2.67-0.53-4.89-1.3-6.68-2.31c-1.79-1-2.68-2.26-2.68-3.76c0-1.88,0.78-3.39,2.35-4.52c1.57-1.13,3.73-1.69,6.49-1.69
				c7.21,0,13.3,2.29,18.25,6.87l7.43-9.97c-6.34-5.83-14.49-8.75-24.46-8.75c-7.21,0-12.98,1.83-17.31,5.5
				c-4.33,3.67-6.49,8.2-6.49,13.6c0,3.7,0.89,6.84,2.68,9.41c1.79,2.57,4.01,4.45,6.68,5.65c2.66,1.19,5.57,2.24,8.7,3.15
				c3.14,0.91,6.04,1.62,8.7,2.12c2.66,0.5,4.89,1.3,6.68,2.4c1.79,1.1,2.68,2.49,2.68,4.19c0,1.94-0.94,3.59-2.82,4.94
				c-1.88,1.35-4.58,2.02-8.09,2.02c-7.84,0-14.49-2.85-19.95-8.56l-7.34,10.44c6.65,6.65,15.55,9.97,26.72,9.97
				c4.51,0,8.43-0.57,11.76-1.7v39.13h13.36V158.3h29.64v26.44h13.45v-62.75H163.69z"/>
		</g>
	</g>
	<g>
		<g>
			<defs>
				<rect id="SVGID_4_" x="269.31" y="57.41" width="1166" height="160.33"/>
			</defs>
			<clipPath id="SVGID_5_">
				<use xlink:href="#SVGID_4_"  style="overflow:visible;"/>
			</clipPath>
			<g class="st2">
				<defs>
					<rect id="SVGID_6_" x="269.31" y="57.41" width="1166" height="160.33"/>
				</defs>
				<clipPath id="SVGID_7_">
					<use xlink:href="#SVGID_6_"  style="overflow:visible;"/>
				</clipPath>
				<path class="st3" d="M283.69,136.5l6.17-8.47c2.33,2.52,5.17,4.6,8.53,6.24c3.36,1.64,7.04,2.46,11.06,2.46
					c4.14,0,7.23-0.84,9.27-2.53c2.04-1.68,3.06-3.71,3.06-6.08c0-1.4-0.41-2.61-1.22-3.64c-0.82-1.03-1.92-1.87-3.31-2.53
					c-1.39-0.65-2.99-1.24-4.81-1.75c-1.81-0.52-3.72-1.02-5.71-1.52c-2-0.5-3.98-1.05-5.96-1.64c-1.98-0.59-3.88-1.34-5.69-2.25
					c-1.81-0.91-3.42-1.98-4.81-3.21c-1.39-1.23-2.49-2.8-3.31-4.71c-0.82-1.91-1.22-4.08-1.22-6.51c0-5.21,2.09-9.55,6.26-13
					c4.17-3.45,9.61-5.18,16.32-5.18c9.49,0,17.2,2.89,23.13,8.67l-6.12,8.09c-2.39-2.4-5.15-4.2-8.28-5.4
					c-3.13-1.2-6.37-1.8-9.73-1.8c-3.14,0-5.67,0.72-7.57,2.16c-1.9,1.44-2.86,3.3-2.86,5.58c0,1.24,0.41,2.33,1.22,3.26
					c0.82,0.92,1.92,1.68,3.31,2.28c1.39,0.59,2.99,1.15,4.81,1.66c1.81,0.52,3.71,1.03,5.69,1.55c1.98,0.52,3.97,1.08,5.96,1.68
					c2,0.61,3.9,1.4,5.71,2.37c1.81,0.97,3.42,2.09,4.81,3.37c1.39,1.28,2.49,2.89,3.31,4.85c0.82,1.96,1.22,4.17,1.22,6.62
					c0,2.08-0.29,4.06-0.88,5.93c-0.59,1.87-1.52,3.62-2.79,5.25c-1.27,1.63-2.83,3.03-4.67,4.21c-1.84,1.18-4.1,2.1-6.78,2.78
					c-2.68,0.68-5.63,1.02-8.87,1.02C298.49,146.3,290.07,143.04,283.69,136.5"/>
				<path class="st3" d="M343.4,114.24c0-4.69,0.84-9.04,2.52-13.06c1.68-4.02,3.97-7.41,6.87-10.18c2.9-2.77,6.35-4.93,10.34-6.48
					c3.99-1.56,8.25-2.34,12.79-2.34c5.8,0,10.76,1.27,14.87,3.81c4.11,2.54,7.42,5.87,9.93,9.99l-9.21,4.83
					c-1.54-2.67-3.72-4.85-6.53-6.53c-2.81-1.68-5.83-2.53-9.07-2.53c-6.14,0-11.23,2.11-15.28,6.33
					c-4.05,4.22-6.08,9.61-6.08,16.16c0,6.47,2.02,11.83,6.08,16.1c4.05,4.27,9.14,6.4,15.28,6.4c3.2,0,6.22-0.85,9.05-2.55
					c2.83-1.7,5.01-3.87,6.55-6.51l9.3,4.64c-5.96,9.32-14.25,13.98-24.9,13.98c-4.53,0-8.8-0.79-12.79-2.36
					c-3.99-1.57-7.44-3.74-10.34-6.51c-2.9-2.77-5.19-6.16-6.87-10.18C344.24,123.23,343.4,118.9,343.4,114.24"/>
				<path class="st3" d="M406.23,145.17l24.35-61.94h13.56l24.31,61.94h-12.33l-4.53-11.97h-28.43l-4.58,11.97H406.23z
					 M426.19,123.63h22.31l-11.16-29.52L426.19,123.63z"/>
				<path class="st3" d="M478.37,145.17V83.22h27.21c6.11,0,11.03,1.79,14.76,5.37c3.73,3.58,5.6,8.26,5.6,14.03
					c0,2.66-0.42,5.09-1.25,7.28c-0.83,2.19-1.95,4.02-3.36,5.49c-1.41,1.47-2.97,2.66-4.69,3.58c-1.72,0.92-3.55,1.53-5.49,1.84
					l15.24,24.35h-12.61l-13.65-23.13h-10.88v23.13H478.37z M489.25,112.47h14.96c3.08,0,5.62-0.91,7.6-2.72
					c1.98-1.81,2.97-4.22,2.97-7.21c0-2.93-0.98-5.29-2.95-7.07c-1.97-1.78-4.5-2.68-7.62-2.68h-14.96V112.47z"/>
				<rect x="540.02" y="83.22" class="st3" width="10.88" height="61.94"/>
				<polygon class="st3" points="567.31,145.17 567.31,83.22 578.46,83.22 610.16,126.12 610.16,83.22 621.04,83.22 621.04,145.17 
					610.52,145.17 578.19,100.86 578.19,145.17 				"/>
				<path class="st3" d="M634.72,114.24c0-4.69,0.84-9.04,2.52-13.06c1.68-4.02,3.97-7.41,6.87-10.18c2.9-2.77,6.35-4.93,10.34-6.48
					c3.99-1.56,8.25-2.34,12.79-2.34c5.8,0,10.76,1.27,14.87,3.81c4.11,2.54,7.42,5.87,9.93,9.99l-9.21,4.83
					c-1.54-2.67-3.72-4.85-6.53-6.53c-2.81-1.68-5.83-2.53-9.07-2.53c-6.14,0-11.23,2.11-15.28,6.33
					c-4.05,4.22-6.08,9.61-6.08,16.16c0,6.47,2.02,11.83,6.08,16.1c4.05,4.27,9.14,6.4,15.28,6.4c3.2,0,6.22-0.85,9.05-2.55
					c2.83-1.7,5.01-3.87,6.55-6.51l9.3,4.64c-5.96,9.32-14.25,13.98-24.9,13.98c-4.54,0-8.8-0.79-12.79-2.36
					c-3.99-1.57-7.44-3.74-10.34-6.51c-2.9-2.77-5.19-6.16-6.87-10.18C635.56,123.23,634.72,118.9,634.72,114.24"/>
				<rect x="703.95" y="83.22" class="st3" width="10.88" height="61.94"/>
				<polygon class="st3" points="812.81,145.17 812.81,83.22 823.7,83.22 823.7,108.48 855.94,108.48 855.94,83.22 866.82,83.22 
					866.82,145.17 855.94,145.17 855.94,118.05 823.7,118.05 823.7,145.17 				"/>
				<path class="st3" d="M884.52,130.75c-2.68-4.88-4.01-10.38-4.01-16.51c0-6.13,1.34-11.63,4.01-16.51
					c2.67-4.87,6.42-8.69,11.25-11.43c4.82-2.75,10.29-4.12,16.39-4.12c4.56,0,8.81,0.81,12.74,2.42c3.93,1.62,7.29,3.84,10.07,6.66
					c2.78,2.82,4.96,6.21,6.53,10.17c1.57,3.96,2.36,8.23,2.36,12.81c0,4.58-0.79,8.85-2.36,12.81c-1.57,3.96-3.75,7.35-6.53,10.17
					c-2.78,2.82-6.14,5.04-10.07,6.66c-3.93,1.62-8.18,2.42-12.74,2.42c-6.11,0-11.57-1.37-16.39-4.12
					C890.94,139.43,887.19,135.62,884.52,130.75 M891.66,114.24c0,6.5,1.87,11.87,5.62,16.12c3.75,4.25,8.71,6.37,14.87,6.37
					c6.14,0,11.09-2.12,14.87-6.37c3.78-4.25,5.67-9.62,5.67-16.12c0-6.53-1.89-11.91-5.67-16.14c-3.78-4.23-8.74-6.35-14.87-6.35
					c-6.17,0-11.13,2.11-14.87,6.33C893.53,102.3,891.66,107.68,891.66,114.24"/>
				<polygon class="st3" points="956.72,145.17 956.72,83.22 967.6,83.22 967.6,135.6 994.9,135.6 994.9,145.17 				"/>
				<polygon class="st3" points="1006.94,145.17 1006.94,83.22 1017.83,83.22 1017.83,135.6 1045.13,135.6 1045.13,145.17 				"/>
				<polygon class="st3" points="1057.9,145.17 1057.9,83.22 1100.34,83.22 1100.34,92.79 1068.78,92.79 1068.78,108.75 
					1099.71,108.75 1099.71,118.32 1068.78,118.32 1068.78,135.6 1100.34,135.6 1100.34,145.17 				"/>
				<polygon class="st3" points="1114.7,145.17 1114.7,83.22 1125.86,83.22 1157.56,126.12 1157.56,83.22 1168.44,83.22 
					1168.44,145.17 1157.92,145.17 1125.59,100.86 1125.59,145.17 				"/>
				<path class="st3" d="M1184.79,145.17V83.22h30.5c5.54,0,9.86,1.49,12.98,4.47c3.12,2.98,4.67,6.75,4.67,11.31
					c0,3.72-1.04,6.86-3.12,9.41c-2.08,2.56-4.64,4.15-7.67,4.78c3.36,0.51,6.19,2.23,8.5,5.15c2.31,2.92,3.47,6.25,3.47,10
					c0,4.99-1.58,9.04-4.74,12.15c-3.16,3.11-7.58,4.67-13.26,4.67H1184.79z M1195.68,108.75h17.46c2.69,0,4.81-0.73,6.35-2.2
					s2.31-3.39,2.31-5.78c0-2.33-0.77-4.24-2.31-5.74c-1.54-1.5-3.66-2.25-6.35-2.25h-17.46V108.75z M1195.68,135.6h17.91
					c2.93,0,5.23-0.76,6.89-2.29c1.66-1.53,2.49-3.64,2.49-6.33c0-2.45-0.83-4.5-2.49-6.17c-1.66-1.66-3.96-2.49-6.89-2.49h-17.91
					V135.6z"/>
				<polygon class="st3" points="1248.31,145.17 1248.31,83.22 1290.75,83.22 1290.75,92.79 1259.19,92.79 1259.19,108.75 
					1290.12,108.75 1290.12,118.32 1259.19,118.32 1259.19,135.6 1290.75,135.6 1290.75,145.17 				"/>
				<path class="st3" d="M1302.44,114.24c0-4.69,0.84-9.04,2.52-13.06c1.68-4.02,3.97-7.41,6.87-10.18
					c2.9-2.77,6.35-4.93,10.34-6.48c3.99-1.56,8.25-2.34,12.79-2.34c5.8,0,10.76,1.27,14.87,3.81c4.11,2.54,7.42,5.87,9.93,9.99
					l-9.21,4.83c-1.54-2.67-3.72-4.85-6.53-6.53c-2.81-1.68-5.83-2.53-9.07-2.53c-6.14,0-11.23,2.11-15.28,6.33
					c-4.05,4.22-6.08,9.61-6.08,16.16c0,6.47,2.02,11.83,6.08,16.1c4.05,4.27,9.14,6.4,15.28,6.4c3.2,0,6.22-0.85,9.05-2.55
					c2.83-1.7,5.01-3.87,6.55-6.51l9.3,4.64c-5.96,9.32-14.25,13.98-24.9,13.98c-4.53,0-8.8-0.79-12.79-2.36
					c-3.99-1.57-7.44-3.74-10.34-6.51c-2.9-2.77-5.19-6.16-6.87-10.18C1303.28,123.23,1302.44,118.9,1302.44,114.24"/>
				<polygon class="st3" points="1371.67,145.17 1371.67,83.22 1382.55,83.22 1382.55,112.65 1406.81,83.22 1420.28,83.22 
					1395.11,112.38 1422.23,145.17 1408.76,145.17 1388.04,118.96 1382.55,125.4 1382.55,145.17 				"/>
				<rect x="758.96" y="70.77" class="st4" width="10.12" height="89.47"/>
				<rect x="1126.98" y="182.51" class="st3" width="281.38" height="4.45"/>
				<path class="st3" d="M599.07,205.17l12.91-32.84h7.19l12.89,32.84h-6.54l-2.4-6.35h-15.07l-2.43,6.35H599.07z M609.65,193.76
					h11.83l-5.91-15.65L609.65,193.76z"/>
				<polygon class="st3" points="635.94,177.41 635.94,172.34 661.59,172.34 661.59,177.41 651.66,177.41 651.66,205.17 
					645.89,205.17 645.89,177.41 				"/>
				<polygon class="st3" points="666.79,177.41 666.79,172.34 692.44,172.34 692.44,177.41 682.51,177.41 682.51,205.17 
					676.74,205.17 676.74,177.41 				"/>
				<path class="st3" d="M700.46,197.53c-1.42-2.58-2.13-5.5-2.13-8.75s0.71-6.17,2.13-8.75c1.42-2.58,3.41-4.6,5.96-6.06
					c2.56-1.46,5.45-2.18,8.69-2.18c2.42,0,4.67,0.43,6.75,1.28c2.08,0.86,3.86,2.03,5.34,3.53s2.63,3.29,3.46,5.39
					c0.83,2.1,1.25,4.36,1.25,6.79c0,2.43-0.42,4.69-1.25,6.79c-0.83,2.1-1.99,3.89-3.46,5.39c-1.47,1.5-3.25,2.67-5.34,3.53
					c-2.08,0.86-4.33,1.28-6.75,1.28c-3.24,0-6.13-0.73-8.69-2.18C703.87,202.14,701.88,200.12,700.46,197.53 M704.25,188.78
					c0,3.44,0.99,6.29,2.98,8.54c1.99,2.25,4.62,3.38,7.88,3.38c3.25,0,5.88-1.13,7.88-3.38c2-2.25,3.01-5.1,3.01-8.54
					c0-3.46-1-6.31-3.01-8.56c-2-2.24-4.63-3.37-7.88-3.37c-3.27,0-5.9,1.12-7.88,3.36C705.24,182.45,704.25,185.3,704.25,188.78"/>
				<path class="st3" d="M739.86,205.17v-32.84h14.42c3.24,0,5.85,0.95,7.82,2.85c1.98,1.9,2.97,4.38,2.97,7.44
					c0,1.41-0.22,2.7-0.66,3.86c-0.44,1.16-1.03,2.13-1.78,2.91c-0.75,0.78-1.57,1.41-2.49,1.9c-0.91,0.49-1.88,0.81-2.91,0.97
					l8.08,12.91h-6.68l-7.24-12.26h-5.77v12.26H739.86z M745.63,187.84h7.93c1.63,0,2.98-0.48,4.03-1.44
					c1.05-0.96,1.57-2.24,1.57-3.82c0-1.55-0.52-2.8-1.56-3.75c-1.04-0.95-2.39-1.42-4.04-1.42h-7.93V187.84z"/>
				<polygon class="st3" points="773.29,205.17 773.29,172.34 779.2,172.34 796,195.08 796,172.34 801.77,172.34 801.77,205.17 
					796.2,205.17 779.05,181.69 779.05,205.17 				"/>
				<polygon class="st3" points="811.18,205.17 811.18,172.34 833.68,172.34 833.68,177.41 816.95,177.41 816.95,185.87 
					833.34,185.87 833.34,190.94 816.95,190.94 816.95,200.1 833.68,200.1 833.68,205.17 				"/>
				<polygon class="st3" points="838.64,172.34 845.25,172.34 854.26,186.38 863.28,172.34 869.89,172.34 857.18,191.54 
					857.18,205.17 851.41,205.17 851.41,191.54 				"/>
				<path class="st3" d="M873.73,200.58l3.27-4.49c1.23,1.34,2.74,2.44,4.52,3.31c1.78,0.87,3.73,1.3,5.87,1.3
					c2.2,0,3.83-0.45,4.92-1.34c1.08-0.89,1.62-1.97,1.62-3.22c0-0.74-0.22-1.38-0.65-1.93c-0.43-0.55-1.02-0.99-1.75-1.34
					c-0.74-0.35-1.59-0.66-2.55-0.93c-0.96-0.27-1.97-0.54-3.03-0.81c-1.06-0.27-2.11-0.56-3.16-0.87c-1.05-0.31-2.05-0.71-3.02-1.2
					c-0.96-0.48-1.81-1.05-2.55-1.7c-0.74-0.65-1.32-1.48-1.75-2.5c-0.43-1.01-0.65-2.16-0.65-3.45c0-2.76,1.11-5.06,3.32-6.89
					c2.21-1.83,5.1-2.74,8.65-2.74c5.03,0,9.12,1.53,12.26,4.6l-3.25,4.29c-1.27-1.27-2.73-2.22-4.39-2.86
					c-1.66-0.64-3.38-0.95-5.16-0.95c-1.67,0-3,0.38-4.01,1.15c-1.01,0.76-1.51,1.75-1.51,2.96c0,0.66,0.22,1.24,0.65,1.73
					c0.43,0.49,1.02,0.89,1.75,1.21c0.74,0.31,1.59,0.61,2.55,0.88c0.96,0.27,1.97,0.55,3.02,0.82c1.05,0.27,2.1,0.57,3.16,0.89
					c1.06,0.32,2.07,0.74,3.03,1.26c0.96,0.51,1.81,1.11,2.55,1.79c0.74,0.68,1.32,1.53,1.75,2.57c0.43,1.04,0.65,2.21,0.65,3.51
					c0,1.1-0.16,2.15-0.47,3.14c-0.31,0.99-0.81,1.92-1.48,2.78c-0.67,0.86-1.5,1.61-2.48,2.23c-0.98,0.62-2.17,1.11-3.59,1.47
					c-1.42,0.36-2.98,0.54-4.7,0.54C881.57,205.78,877.11,204.04,873.73,200.58"/>
				<path class="st3" d="M919.3,205.17l12.91-32.84h7.19l12.88,32.84h-6.54l-2.4-6.35h-15.07l-2.43,6.35H919.3z M929.88,193.76
					h11.83l-5.91-15.65L929.88,193.76z"/>
				<polygon class="st3" points="956.16,177.41 956.16,172.34 981.81,172.34 981.81,177.41 971.88,177.41 971.88,205.17 
					966.11,205.17 966.11,177.41 				"/>
				<polygon class="st3" points="1003.9,205.17 1003.9,172.34 1009.67,172.34 1009.67,200.1 1024.14,200.1 1024.14,205.17 				"/>
				<path class="st3" d="M1028.26,205.17l12.91-32.84h7.19l12.88,32.84h-6.54l-2.4-6.35h-15.07l-2.43,6.35H1028.26z M1038.84,193.76
					h11.83l-5.91-15.65L1038.84,193.76z"/>
				<polygon class="st3" points="1064.09,172.34 1070.53,172.34 1076.9,197.6 1083.68,172.34 1088.27,172.34 1095.07,197.6 
					1101.47,172.34 1107.91,172.34 1098.51,205.17 1092.36,205.17 1086.05,181.02 1079.67,205.17 1073.46,205.17 				"/>
				<rect x="300.66" y="182.51" class="st3" width="280.57" height="4.45"/>
			</g>
		</g>
	</g>
</g>
<g id="Layer_1">
</g>
<g id="Layer_2">
</g>
</svg>
